# xmcd
#
# Track frame offsets:
#	150
#	20740
#	37890
#	53380
#	72490
#	91673
#	109292
#	125540
#	141900
#	160488
#	174800
#	190480
#	204563
#
# Disc length: 2882 seconds
#
# Revision: 0
# Processed by: cddbd v1.4PL0 Copyright (c) Steve Scherf et al.
# Submitted via: EasyCDDAExtractor 4.6.9.1
#
DISCID=b20b400d
DTITLE=Forró de Itaúnas - Primeiro Festival
DYEAR=2001
DGENRE=National Folk
TTITLE0=Pass'o Preto (Trio Lubião)
TTITLE1=Osmarim Salgado Doce (Corindó)
TTITLE2=Vem Cá (Forró de Saia)
TTITLE3=Saudades de Itaúnas (Forró Mandachuva)
TTITLE4=Terrinha (Banda Pé no Chão)
TTITLE5=Lembrança da Casinha (Xote de Colo)
TTITLE6=Jerimum em Itaúnas (Trio Jerimum)
TTITLE7=Vento dos Sonhos (Banda Cataia)
TTITLE8=Recomeço (Banda Bagana)
TTITLE9=Xote de Itaúnas (Banda Karalarga)
TTITLE10=Te Encontrar (Cipó Cravo)
TTITLE11=Da cor Brasileira (Trio Girassol)
TTITLE12=Vida Seca (Banda Pizindim)
EXTD=
EXTT0=
EXTT1=
EXTT2=
EXTT3=
EXTT4=
EXTT5=
EXTT6=
EXTT7=
EXTT8=
EXTT9=
EXTT10=
EXTT11=
EXTT12=
PLAYORDER=
